<svg width="143px" height="65px" viewBox="0 0 143 65" version="1.1" xmlns="http://www.w3.org/2000/svg" fill="#FFFFFF">
  <path
    d="M18.0882156,21.6910449 C17.1287455,19.7331437 15.8199102,18.9890299 14.8266168,18.7535509 C14.1441557,18.5921407 10.7678144,18.7561198 9.96804192,18.7591168 L9.96804192,18.8126347 C10.9934461,19.2459162 13.0361198,21.5129371 13.8281856,23.2259401 C14.3612246,24.378503 17.5573174,30.9312425 18.6670659,33.0317156 C19.7703922,35.121485 22.1953982,35.8818683 23.2237994,36.0081707 C23.6964701,36.0659701 24.187979,36.0642575 24.6777754,36.0535539 C19.6907575,42.6332665 15.0980599,48.7120509 15.6199671,47.9910569 C13.9883114,49.9986228 12.432009,50.8052455 10.9078174,51.2672126 L10.915524,51.5532126 C14.8994012,51.5532126 17.732,48.6191437 18.2247934,47.9786407 C19.0922126,46.8513383 23.5046617,40.9463802 28.0733832,34.9005629 L28.0733832,49.1808683 L32.014018,49.1808683 L32.014018,30.4418743 C32.8561766,31.1191976 33.8400509,32.1822784 34.5499132,33.4585749 C34.9309611,34.1431766 36.8558952,38.6588084 38.1249132,40.4099162 C39.1901347,41.8805898 40.8389162,42.1117874 42.3913653,42.1143563 C39.5043922,45.9201257 36.5450629,49.8162335 34.4942545,52.4887066 C33.7912425,53.404506 33.0822365,54.2920479 32.2957365,55.1162246 C31.9827635,55.4441826 30.339976,57.3083204 28.8590269,57.3083204 C27.2333653,57.3083204 26.192976,56.0371617 26.192976,54.7771347 C26.192976,53.4105 26.931524,51.9882066 28.5387754,51.6307066 C30.0655359,51.2916168 31.3212814,52.1033772 31.5559042,52.3452784 C31.5559042,52.3452784 33.098506,51.9115689 33.0993623,51.8978683 C32.2212395,51.113509 29.8411886,50.6528263 28.4403024,50.8917305 C26.2726108,51.2612186 24.363518,52.7079162 24.363518,54.9064341 C24.363518,56.3856707 25.8538862,57.9727994 28.8346228,57.9727994 C32.4181856,57.9727994 34.7939551,55.2403862 35.583024,54.3832425 C35.9683533,53.9658024 44.8360659,42.1867126 49.9117096,35.5277934 L49.9035749,35.5277934 C50.0247395,35.3663832 50.1257814,35.2298054 50.2024192,35.1257665 C50.9221287,34.1436048 53.476006,31.0207246 52.2960419,29.6506647 L49.3341437,29.6476677 L49.3341437,29.8137874 C50.842494,30.6820629 48.5844641,33.9702066 47.4087814,35.5277934 L47.3886587,35.5277934 C46.1286317,37.1868503 44.6875,39.0873802 43.2026976,41.0448533 C42.8657485,40.7096168 42.6452545,40.2968862 42.414485,39.8606078 C41.7123293,38.5282246 39.7308802,34.6475299 38.7046198,32.5158024 C38.0242994,31.1020719 36.6970539,29.723021 35.3539671,29.6528054 C34.2489281,29.5954341 33.125479,29.6977605 32.014018,29.7084641 L32.014018,29.7067515 C34.0956527,26.9769072 35.9910449,24.5180778 37.3311347,22.8350449 C38.0508443,21.9312335 38.7435808,21.0312754 39.5300808,20.2066707 C39.8430539,19.8791407 41.4858413,18.015003 42.9663623,18.015003 C44.592024,18.015003 45.6328413,19.2861617 45.6328413,20.5457605 C45.6328413,21.9128234 44.8938653,23.3355449 43.2870419,23.6926168 C41.7602814,24.0317066 40.5041078,23.219518 40.2699132,22.9780449 C40.2699132,22.9780449 38.7273114,23.4113263 38.7264551,23.4254551 C39.6045778,24.2098144 41.9842006,24.670497 43.385515,24.4311647 C45.5532066,24.0621048 47.4618713,22.614979 47.4618713,20.4164611 C47.4618713,18.9372246 45.971503,17.3500958 42.9911946,17.3500958 C39.4072036,17.3500958 37.0318623,20.0833653 36.2423653,20.9400808 C35.9679251,21.238497 34.2964521,23.4061886 32.014018,26.3972006 L32.014018,10.2715958 L28.0733832,10.2715958 L28.0733832,31.5768832 C27.2072485,32.7174581 26.3205629,33.8867186 25.4381587,35.0504132 C24.7801018,34.6175599 24.2252275,34.0314311 23.8095,33.2500689 C22.8581647,31.4617126 19.5160749,24.6024222 18.0882156,21.6910449 Z M29.1326108,7.28144012 L31.153021,7.28144012 C31.153021,7.28144012 30.7745419,6.47652994 30.7133174,4.37006287 C32.827491,4.42914671 33.6349701,4.79949102 33.6349701,4.79949102 L33.6349701,2.77993713 C33.6349701,2.77993713 32.827491,3.15927246 30.7128892,3.21964072 C30.7732575,1.10503892 31.153021,0.297988024 31.153021,0.297988024 L29.1326108,0.297988024 C29.1326108,0.297988024 29.5038114,1.10503892 29.5624671,3.21921257 C27.4555719,3.15798802 26.6519461,2.77993713 26.6519461,2.77993713 L26.6519461,4.79949102 C26.6519461,4.79949102 27.4555719,4.43043114 29.5620389,4.37049102 C29.5025269,6.47695808 29.1326108,7.28144012 29.1326108,7.28144012 Z M59.8330838,13.6988862 C55.8569132,14.1051946 52.9412545,13.4467096 49.7143353,11.0294102 C46.5884581,8.68746407 44.1155,6.71200898 40.245509,6.71200898 C36.7163204,6.71200898 35.7637006,9.05395509 35.7637006,10.3966138 C35.7637006,12.3917635 37.4685689,13.352518 39.1233443,13.352518 C42.9873413,13.352518 42.8627515,9.75739521 40.5413563,9.75739521 C41.1814311,10.8170509 40.7258862,12.7317096 39.1516018,12.7317096 C37.3525419,12.7317096 37.1359012,11.1060479 37.1359012,10.2994251 C37.1359012,9.14086826 38.3796587,7.24461976 40.2386587,7.24461976 C43.8791647,7.24461976 45.9603713,9.66448802 48.8422066,11.8514461 C51.5947425,13.9403593 54.8657605,14.7277156 58.287485,14.4721138 C58.287485,17.9610569 58.2900539,50.5736198 58.290482,56.5333802 C58.290482,56.931982 59.8270898,56.3407156 59.8270898,55.9416856 C59.8270898,55.695503 59.824521,20.8784281 59.824521,14.2901527 L59.8330838,14.2888683 L59.8330838,13.6988862 Z M19.9878892,7.24461976 C21.8473174,7.24461976 23.0910749,9.14086826 23.0910749,10.2994251 C23.0910749,11.1060479 22.8744341,12.7317096 21.0753743,12.7317096 C19.5006617,12.7317096 19.0451168,10.8170509 19.6856198,9.75739521 C17.3642246,9.75739521 17.2396347,13.352518 21.1036317,13.352518 C22.7584072,13.352518 24.4628473,12.3917635 24.4628473,10.3966138 C24.4628473,9.05395509 23.5106557,6.71200898 19.9814671,6.71200898 C16.111476,6.71200898 13.6380898,8.68746407 10.5126407,11.0294102 C7.28529341,13.4467096 4.37006287,14.1051946 0.393892216,13.6988862 L0.393892216,14.2888683 C0.396889222,14.2892964 0.399458084,14.2897246 0.40245509,14.2901527 C0.40245509,20.878 0.399458084,55.695503 0.399458084,55.9416856 C0.399458084,56.3407156 1.93649401,56.931982 1.93649401,56.5333802 C1.93692216,50.5736198 1.93906287,17.9610569 1.93949102,14.4721138 C5.36078743,14.7281437 8.63180539,13.9403593 11.3847695,11.8514461 C14.2666048,9.66448802 16.3473832,7.24461976 19.9878892,7.24461976 Z M55.4912784,17.3068533 C55.4977006,23.4789731 55.4814311,28.1727126 55.4874251,34.3444042 C55.4942754,41.6493922 55.486997,56.5958892 55.4857126,59.6652515 C52.5970269,58.9237066 49.5884611,58.2836317 46.6466856,58.1932934 C41.0054641,58.0198952 34.6402515,59.6134461 30.2218084,63.438482 C30.2051108,63.4526108 30.1892695,63.4675958 30.173,63.4821527 C26.0422695,59.8681916 20.2387814,58.2862006 14.9477814,58.2185539 C11.5757216,58.1748832 8.13301796,58.8342246 4.81233533,59.577482 C4.80676946,53.5543563 4.80163174,47.267494 4.79649401,41.2593533 C4.78964371,33.2342275 4.81319162,17.7594012 4.81276347,17.3072814 C4.81233533,16.9082515 3.23676647,16.3174132 3.23676647,16.7155868 C3.24233234,22.8902754 3.24747006,28.1778503 3.25346407,34.3521108 C3.26031437,42.3776647 3.23676647,59.6271467 3.23676647,60.0784102 C3.23719461,60.4380509 4.24461677,60.3626976 4.43214371,60.3177425 C7.47453293,59.5860449 10.668485,59.2739281 13.7892246,59.2186976 C19.2523383,59.1206527 25.3760778,60.3130329 29.4323114,64.3153204 C29.7401467,64.6193024 30.6058533,64.6193024 30.9141168,64.3153204 C35.0281497,60.2552335 41.1009401,59.0414461 46.6466856,59.190012 C49.7314611,59.2726437 52.9044341,59.6554042 55.8933054,60.4534641 C56.0795479,60.5031287 57.0501497,60.5712036 57.0497216,60.214988 C57.0432994,54.0432964 57.0373054,47.5753293 57.0313114,41.4032096 C57.0231766,33.3485419 57.0501497,17.1856886 57.0497216,16.7155868 C57.0492934,16.3165569 55.4908503,16.9086796 55.4912784,17.3068533 L55.4912784,17.3068533 Z"/>
  <path
    d="M72.718497,12.7565419 L72.718497,13.3760659 C72.1066796,13.4437126 71.800985,13.8418862 71.800985,14.5701587 L71.800985,18.7368533 C71.800985,20.5723054 72.3956766,21.7741048 73.585488,22.3422515 C74.0414611,22.5606048 74.622024,22.6697814 75.3258922,22.6697814 C76.0447455,22.6697814 76.707512,22.4950988 77.3146198,22.1457335 C77.9748174,21.756979 78.4239401,21.1794132 78.661988,20.4121796 C78.793,19.9797545 78.8589341,19.305 78.8589341,18.3870599 L78.8589341,14.4464251 C78.8589341,13.7909371 78.5476737,13.439003 77.9264371,13.3901946 L77.9264371,12.7565419 L80.5338323,12.7565419 L80.5338323,13.3901946 C79.922015,13.439003 79.6163204,13.7909371 79.6163204,14.4464251 L79.6163204,19.1007754 C79.6163204,22.1213293 78.0985509,23.6313922 75.0638683,23.6313922 C73.3401617,23.6313922 72.1019701,23.1916886 71.3492934,22.3127096 C70.6402874,21.5262096 70.2857844,20.314991 70.2857844,18.6786257 L70.2857844,14.5701587 C70.2857844,13.8418862 69.9800898,13.4488503 69.3682725,13.3901946 L69.3682725,12.7565419 L72.718497,12.7565419"
  />
  <path
    d="M84.3396018,19.3700778 L85.9494222,18.0081527 C86.2015988,17.7949371 86.3279012,17.6442305 86.3279012,17.5568892 C86.3279012,17.386488 86.1630659,17.3017156 85.8329671,17.3017156 L85.8329671,16.7194401 L88.6081946,16.7194401 L88.6081946,17.3017156 C88.0494671,17.3406766 87.4496377,17.6348114 86.8087066,18.1832635 L85.847524,19.0134341 L88.1419461,21.941509 C88.6030569,22.5537545 88.9913832,22.8637305 89.3069251,22.874006 L89.3069251,23.4567096 L86.0877126,23.4567096 L86.0877126,22.8662994 C86.291509,22.8573084 86.4349371,22.8329042 86.5175689,22.793515 C86.6002006,22.754982 86.6558593,22.6993234 86.6849731,22.6265389 L86.6995299,22.5678832 L86.7068084,22.4873922 L86.6849731,22.4223144 L86.6485808,22.3276946 L84.8058503,19.960488 L84.3396018,20.3612305 L84.3396018,21.6940419 C84.3588683,22.4364431 84.6093323,22.8444641 85.0897096,22.9172485 L85.0897096,23.4926737 L82.1911766,23.4926737 L82.1911766,22.9172485 C82.710515,22.8496018 82.9703982,22.4415808 82.9703982,21.6940419 L82.9703982,15.3647934 C82.9703982,15.0483952 82.9387156,14.7645359 82.8757784,14.5123593 C82.7738802,14.3372485 82.5576677,14.2233623 82.2275689,14.1698443 L82.2275689,13.5944192 L84.3396018,13.5944192 L84.3396018,19.3700778"/>
  <path
    d="M93.224012,16.7194401 L93.224012,17.7970778 L93.2308623,17.7970778 C93.760476,16.9913114 94.3307635,16.588 94.9425808,16.588 C95.5351317,16.588 95.8314072,16.8525928 95.8314072,17.3822066 C95.8314072,17.8240509 95.6224731,18.0449731 95.2050329,18.0449731 C94.9477186,18.0449731 94.7486317,17.9619132 94.6077725,17.7970778 C94.5204311,17.6467994 94.4112545,17.5714461 94.2802425,17.5714461 C94.0276377,17.5714461 93.7942994,17.7756707 93.5806557,18.1832635 C93.3426078,18.6302455 93.224012,19.1688503 93.224012,19.7999341 L93.224012,21.6940419 C93.224012,22.4758323 93.4808982,22.8812844 93.9959551,22.9103982 L93.9959551,23.4926737 L91.096994,23.4926737 L91.096994,22.9172485 C91.6163323,22.8594491 91.8762156,22.4518563 91.8762156,21.6940419 L91.8762156,18.1614281 C91.8762156,17.6853323 91.6214701,17.3967635 91.1115509,17.2944371 L91.1115509,16.7194401 L93.224012,16.7194401"/>
  <path
    d="M101.545841,22.5824401 C100.948581,23.1895479 100.26141,23.4926737 99.4847575,23.4926737 C98.833979,23.4926737 98.3266287,23.3158503 97.9622784,22.9613473 C97.6030659,22.6406677 97.4232455,22.2133802 97.4232455,21.679485 C97.4232455,20.2323593 98.7367904,19.4313024 101.36388,19.2758862 C101.36388,18.6156886 101.288527,18.1417335 101.138249,17.8553054 C100.968275,17.4763982 100.630898,17.2871587 100.125689,17.2871587 C99.7078204,17.2871587 99.4312395,17.4618413 99.2950898,17.8116347 C99.1837725,18.1276048 99.122976,18.2945808 99.1131287,18.3138473 C99.0112305,18.4645539 98.8438263,18.5399072 98.610488,18.5399072 C98.2174521,18.5399072 98.020506,18.3630838 98.020506,18.0081527 C98.020506,17.6879012 98.2148832,17.4019012 98.6032096,17.1492964 C99.0356347,16.8431737 99.5913653,16.6898982 100.271257,16.6898982 C101.3155,16.6898982 102.016799,17.0298443 102.37644,17.7093084 C102.590084,18.1276048 102.696692,18.7608293 102.696692,19.6111228 L102.696692,21.7081707 C102.696692,22.3833533 102.924892,22.7207305 103.381293,22.7207305 C103.454078,22.7207305 103.563683,22.6843383 103.709251,22.6111257 L103.85482,22.8594491 C103.558545,23.2820269 103.174928,23.4926737 102.70397,23.4926737 C102.111847,23.4926737 101.725662,23.1895479 101.545841,22.5824401 Z M101.36388,19.894982 C99.6932635,19.9874611 98.8583832,20.5723054 98.8583832,21.6499431 C98.8583832,21.9757605 98.9722695,22.2399251 99.2004701,22.4441497 C99.4141138,22.6291078 99.6885539,22.7207305 100.02379,22.7207305 C100.57738,22.7207305 100.958428,22.4805419 101.167362,22.0001647 C101.298374,21.6747754 101.36388,21.1597186 101.36388,20.4554222 L101.36388,19.894982 L101.36388,19.894982 Z"/>
  <path
    d="M107.866955,16.7194401 L107.866955,21.6940419 C107.866955,22.4758323 108.129407,22.8812844 108.653883,22.9103982 L108.653883,23.4926737 L105.769479,23.4926737 L105.769479,22.9172485 C106.279398,22.8594491 106.534144,22.4518563 106.534144,21.6940419 L106.534144,18.5326287 C106.534144,18.1301737 106.50032,17.8531647 106.432246,17.7028862 C106.330347,17.4986617 106.109425,17.362512 105.769479,17.2944371 L105.769479,16.7194401 L107.866955,16.7194401 Z M106.381296,13.9437844 C106.536713,13.7451257 106.750356,13.6453683 107.022228,13.6453683 C107.269695,13.6453683 107.47135,13.7284281 107.626766,13.8928353 C107.806587,14.067518 107.896497,14.2743114 107.896497,14.5123593 C107.896497,14.7889401 107.79674,15.0077216 107.597653,15.1678473 C107.408413,15.3232635 107.216177,15.4007575 107.022228,15.4007575 C106.798737,15.4007575 106.592371,15.3112754 106.403132,15.1314551 C106.22374,14.946497 106.133829,14.7405599 106.133829,14.5123593 C106.133829,14.3034251 106.216033,14.1141856 106.381296,13.9437844 L106.381296,13.9437844 Z"/>
  <path
    d="M110.683713,22.9249551 C111.203051,22.8521707 111.462934,22.439012 111.462934,21.6863353 L111.462934,18.1614281 C111.462934,17.6951796 111.208189,17.4061826 110.698269,17.2944371 L110.698269,16.7262904 L112.810731,16.7262904 L112.803452,17.5855749 C113.434536,16.9210958 114.172656,16.588 115.017383,16.588 L115.097874,16.588 C115.898931,16.5982754 116.435395,16.8675778 116.707266,17.3967635 C116.848126,17.6879012 116.918341,18.1614281 116.918341,18.816488 L116.918341,21.6863353 C116.918341,22.4732635 117.180793,22.8812844 117.705269,22.9103982 L117.705269,23.4926737 L114.791751,23.4926737 L114.791751,22.9249551 C115.316228,22.8521707 115.578251,22.439012 115.578251,21.6863353 L115.578251,18.7591168 C115.578251,17.8505958 115.248153,17.3967635 114.587955,17.3967635 C113.893506,17.3967635 113.300955,17.7756707 112.810731,18.5326287 L112.810731,21.6863353 C112.810731,22.4492874 113.067617,22.8615898 113.582674,22.9249551 L113.582674,23.4926737 L110.683713,23.4926737 L110.683713,22.9249551"/>
  <path
    d="M121.714407,16.7194401 L121.714407,21.6940419 C121.714407,22.4758323 121.976859,22.8812844 122.501335,22.9103982 L122.501335,23.4926737 L119.616931,23.4926737 L119.616931,22.9172485 C120.12685,22.8594491 120.381596,22.4518563 120.381596,21.6940419 L120.381596,18.5326287 C120.381596,18.1301737 120.347772,17.8531647 120.279698,17.7028862 C120.177799,17.4986617 119.956877,17.362512 119.616931,17.2944371 L119.616931,16.7194401 L121.714407,16.7194401 Z M120.228749,13.9437844 C120.384165,13.7451257 120.597808,13.6453683 120.86968,13.6453683 C121.117147,13.6453683 121.318802,13.7284281 121.474219,13.8928353 C121.654039,14.067518 121.743949,14.2743114 121.743949,14.5123593 C121.743949,14.7889401 121.644192,15.0077216 121.445105,15.1678473 C121.255437,15.3232635 121.063629,15.4007575 120.86968,15.4007575 C120.646189,15.4007575 120.439823,15.3112754 120.250584,15.1314551 C120.070763,14.946497 119.980853,14.7405599 119.980853,14.5123593 C119.980853,14.3034251 120.063485,14.1141856 120.228749,13.9437844 L120.228749,13.9437844 Z"/>
  <path
    d="M128.498344,22.5824401 C127.901084,23.1895479 127.213913,23.4926737 126.43726,23.4926737 C125.786482,23.4926737 125.279132,23.3158503 124.914781,22.9613473 C124.555569,22.6406677 124.375749,22.2133802 124.375749,21.679485 C124.375749,20.2323593 125.689293,19.4313024 128.316383,19.2758862 C128.316383,18.6156886 128.24103,18.1417335 128.090751,17.8553054 C127.920778,17.4763982 127.583401,17.2871587 127.078192,17.2871587 C126.660323,17.2871587 126.383743,17.4618413 126.248021,17.8116347 C126.136275,18.1276048 126.075479,18.2945808 126.065632,18.3138473 C125.963734,18.4645539 125.796329,18.5399072 125.562991,18.5399072 C125.169955,18.5399072 124.973437,18.3630838 124.973437,18.0081527 C124.973437,17.6879012 125.167386,17.4019012 125.555713,17.1492964 C125.988138,16.8431737 126.544296,16.6898982 127.22376,16.6898982 C128.268003,16.6898982 128.969302,17.0298443 129.328943,17.7093084 C129.542587,18.1276048 129.649195,18.7608293 129.649195,19.6111228 L129.649195,21.7081707 C129.649195,22.3833533 129.877395,22.7207305 130.334225,22.7207305 C130.406581,22.7207305 130.516186,22.6843383 130.661754,22.6111257 L130.807323,22.8594491 C130.511476,23.2820269 130.127431,23.4926737 129.656901,23.4926737 C129.06435,23.4926737 128.678165,23.1895479 128.498344,22.5824401 Z M128.316383,19.894982 C126.645766,19.9874611 125.810886,20.5723054 125.810886,21.6499431 C125.810886,21.9757605 125.924772,22.2399251 126.152973,22.4441497 C126.366617,22.6291078 126.641485,22.7207305 126.976293,22.7207305 C127.529883,22.7207305 127.910931,22.4805419 128.119865,22.0001647 C128.250877,21.6747754 128.316383,21.1597186 128.316383,20.4554222 L128.316383,19.894982 L128.316383,19.894982 Z"/>
  <path
    d="M132.721982,22.9249551 C133.24132,22.8521707 133.501204,22.439012 133.501204,21.6863353 L133.501204,18.1614281 C133.501204,17.6951796 133.246458,17.4061826 132.736539,17.2944371 L132.736539,16.7262904 L134.848572,16.7262904 L134.841293,17.5855749 C135.472805,16.9210958 136.210925,16.588 137.055653,16.588 L137.135716,16.588 C137.936772,16.5982754 138.473237,16.8675778 138.745536,17.3967635 C138.886395,17.6879012 138.956611,18.1614281 138.956611,18.816488 L138.956611,21.6863353 C138.956611,22.4732635 139.219063,22.8812844 139.743539,22.9103982 L139.743539,23.4926737 L136.829593,23.4926737 L136.829593,22.9249551 C137.354497,22.8521707 137.616521,22.439012 137.616521,21.6863353 L137.616521,18.7591168 C137.616521,17.8505958 137.285994,17.3967635 136.625796,17.3967635 C135.931347,17.3967635 135.338796,17.7756707 134.848572,18.5326287 L134.848572,21.6863353 C134.848572,22.4492874 135.105886,22.8615898 135.620943,22.9249551 L135.620943,23.4926737 L132.721982,23.4926737 L132.721982,22.9249551"/>
  <path
    d="M78.4363563,31.6959072 C78.1400808,30.9676347 77.6468593,30.4166138 76.9575479,30.0424162 C76.379982,29.7123174 75.7411916,29.5470539 75.0420329,29.5470539 C74.0367515,29.5470539 73.1603413,29.9503653 72.4128024,30.7561317 C71.5873413,31.6548054 71.1746108,32.8977066 71.1746108,34.4856916 C71.1746108,35.9910449 71.5629371,37.1684401 72.3395898,38.0178772 C73.0974042,38.8240719 74.1048263,39.2269551 75.3627126,39.2269551 C76.8145479,39.2269551 78.0767156,38.6643743 79.1500719,37.5375 L79.5799281,37.9742066 C78.3271796,39.2954581 76.8145479,39.9552275 75.0420329,39.9552275 C73.3911108,39.9552275 72.0386048,39.4705689 70.9849431,38.4986826 C69.9068772,37.4792725 69.3682725,36.1361856 69.3682725,34.4711347 C69.3682725,32.8441886 69.8854701,31.5019581 70.9194371,30.4435868 C71.9585419,29.3796497 73.2892126,28.8478952 74.911021,28.8478952 C75.6392934,28.8478952 76.418515,28.9622096 77.2491138,29.1904102 C77.797994,29.3312695 78.1790419,29.401485 78.3926856,29.401485 C78.504003,29.401485 78.6255958,29.335979 78.7566078,29.2049671 L79.1282365,29.2049671 L79.1282365,31.6959072 L78.4363563,31.6959072"/>
  <path
    d="M85.5563862,38.9067036 C84.9591257,39.5138114 84.2719551,39.8173653 83.4953024,39.8173653 C82.844524,39.8173653 82.3371737,39.6401138 81.9728234,39.2856108 C81.6136108,38.9653593 81.4337904,38.5380719 81.4337904,38.0037485 C81.4337904,36.5566228 82.7473353,35.7555659 85.3744251,35.5997216 C85.3744251,34.939524 85.2990719,34.4664251 85.1483653,34.1795689 C84.9783922,33.8006617 84.641015,33.6118503 84.1362335,33.6118503 C83.7183653,33.6118503 83.4417844,33.7865329 83.3056347,34.1363263 C83.1943174,34.4514401 83.1330928,34.6192725 83.1236737,34.6385389 C83.0217754,34.7892455 82.8543713,34.8645988 82.6210329,34.8645988 C82.227997,34.8645988 82.0310509,34.6873473 82.0310509,34.3328443 C82.0310509,34.0121647 82.2254281,33.7257365 82.6137545,33.4731317 C83.0457515,33.167009 83.6019102,33.0141617 84.2818024,33.0141617 C85.3260449,33.0141617 86.0273443,33.3541078 86.386985,34.034 C86.6006287,34.4514401 86.7072365,35.0850928 86.7072365,35.9349581 L86.7072365,38.0328623 C86.7072365,38.7076168 86.9354371,39.044994 87.3918383,39.044994 C87.4646228,39.044994 87.5742275,39.0086018 87.7197964,38.9358174 L87.8653653,39.1832844 C87.5690898,39.6058623 87.1854731,39.8173653 86.714515,39.8173653 C86.1219641,39.8173653 85.7357784,39.5138114 85.5563862,38.9067036 Z M85.3744251,36.2192455 C83.7038084,36.3108683 82.8689281,36.8965689 82.8689281,37.9742066 C82.8689281,38.2995958 82.9828144,38.5646168 83.211015,38.7684132 C83.4246587,38.9529431 83.6990988,39.044994 84.0339072,39.044994 C84.587497,39.044994 84.9685449,38.8048054 85.177479,38.324 C85.308491,37.9986108 85.3744251,37.4844102 85.3744251,36.7796856 L85.3744251,36.2192455 L85.3744251,36.2192455 Z"/>
  <path
    d="M90.1028443,33.0287186 L90.1028443,31.528503 L91.4360838,30.7779671 L91.4360838,33.0287186 L92.8853503,33.0287186 L92.8853503,33.6405359 L91.4360838,33.6405359 L91.4360838,38.0838114 C91.4360838,38.7050479 91.7028174,39.0163084 92.2371407,39.0163084 C92.5625299,39.0163084 92.8802126,38.8848683 93.1914731,38.6224162 L93.5262814,39.0381437 C92.9970958,39.634976 92.378,39.9333922 91.668994,39.9333922 C90.6247515,39.9333922 90.1028443,39.3314222 90.1028443,38.127482 L90.1028443,33.6405359 L89.3381796,33.6405359 L89.3381796,33.0287186 L90.1028443,33.0287186"/>
  <path
    d="M97.5880808,33.7938114 L97.6317515,33.7938114 C98.2872395,33.2063982 99.0202216,32.9122635 99.8311257,32.9122635 C101.059898,32.9122635 101.674284,33.6550928 101.674284,35.1411796 L101.674284,38.0328623 C101.674284,38.7804012 101.92903,39.1832844 102.438949,39.2419401 L102.438949,39.8173653 L99.5763802,39.8173653 L99.5763802,39.2419401 C99.9163263,39.1935599 100.137249,39.0522725 100.239147,38.8193623 C100.302084,38.678503 100.333766,38.416479 100.333766,38.0328623 L100.333766,35.082524 C100.333766,34.1701497 99.9989581,33.7133204 99.3289132,33.7133204 C98.5663892,33.7133204 97.9858263,34.1067844 97.5880808,34.8937126 L97.5880808,38.0178772 C97.6073473,38.7611347 97.8573832,39.1687275 98.3381886,39.2419401 L98.3381886,39.8173653 L95.4392275,39.8173653 L95.4392275,39.2419401 C95.9585659,39.1738653 96.2184491,38.7662725 96.2184491,38.0178772 L96.2184491,31.6886287 C96.2184491,31.3730868 96.1871946,31.0887994 96.1238293,30.8361946 C96.0219311,30.661512 95.8057186,30.5480539 95.4756198,30.4945359 L95.4756198,29.9186826 L97.5880808,29.9186826 L97.5880808,33.7938114"/>
  <path
    d="M110.67729,35.4323174 C110.750075,35.7285928 110.786467,36.0634012 110.786467,36.4375988 C110.786467,36.6756467 110.750075,36.9526557 110.67729,37.2677695 C110.424686,38.258494 109.873237,38.9627904 109.023799,39.3802305 C108.533147,39.6276976 108.013808,39.7518593 107.464928,39.7518593 C106.906629,39.7518593 106.392,39.6276976 105.921042,39.3802305 C105.05662,38.9679281 104.495751,38.2636317 104.238437,37.2677695 C104.165653,36.9526557 104.12926,36.6756467 104.12926,36.4375988 C104.12926,36.0634012 104.165653,35.7285928 104.238437,35.4323174 C104.680281,33.7574192 105.755778,32.9195419 107.464928,32.9195419 C109.179216,32.9195419 110.249575,33.7574192 110.67729,35.4323174 Z M106.183066,34.1209132 C105.819144,34.5439192 105.636754,35.2987365 105.636754,36.3862216 C105.636754,37.1299072 105.714677,37.6877784 105.870093,38.061976 C106.126979,38.7855389 106.651883,39.1473204 107.443093,39.1473204 C108.647461,39.1473204 109.249431,38.2268114 109.249431,36.3862216 C109.249431,35.2987365 109.06747,34.5439192 108.703548,34.1209132 C108.431249,33.7715479 108.01124,33.5968653 107.443093,33.5968653 C106.884793,33.5968653 106.464784,33.7715479 106.183066,34.1209132 L106.183066,34.1209132 Z"/>
  <path
    d="M114.644042,29.9186826 L114.644042,38.0178772 C114.663308,38.7611347 114.913344,39.1687275 115.39415,39.2419401 L115.39415,39.8173653 L112.495617,39.8173653 L112.495617,39.2419401 C113.014955,39.1738653 113.274838,38.7662725 113.274838,38.0178772 L113.274838,31.6886287 C113.274838,31.3730868 113.243156,31.0887994 113.180219,30.8361946 C113.077892,30.661512 112.86168,30.5480539 112.531581,30.4945359 L112.531581,29.9186826 L114.644042,29.9186826"/>
  <path
    d="M119.406713,33.0432754 L119.406713,38.0178772 C119.406713,38.7996677 119.668737,39.2051198 120.193213,39.2346617 L120.193213,39.8173653 L117.308808,39.8173653 L117.308808,39.2419401 C117.818728,39.1832844 118.073473,38.7752635 118.073473,38.0178772 L118.073473,34.8568922 C118.073473,34.454009 118.03965,34.177 117.972003,34.0267216 C117.869677,33.822497 117.648754,33.6872036 117.308808,33.6182725 L117.308808,33.0432754 L119.406713,33.0432754 Z M117.920626,30.268476 C118.076042,30.0689611 118.289686,29.9696317 118.561557,29.9696317 C118.809452,29.9696317 119.01068,30.0518353 119.166096,30.2175269 C119.345916,30.3922096 119.435826,30.5985749 119.435826,30.8361946 C119.435826,31.1132036 119.336069,31.3315569 119.136982,31.4921108 C118.947743,31.6475269 118.755934,31.7254491 118.561557,31.7254491 C118.338066,31.7254491 118.132129,31.6351108 117.942461,31.4557186 C117.763069,31.2711886 117.673159,31.0648234 117.673159,30.8361946 C117.673159,30.6276886 117.75579,30.4384491 117.920626,30.268476 L117.920626,30.268476 Z"/>
  <path
    d="M128.106165,38.4695689 C127.285841,39.3682425 126.343925,39.8173653 125.280416,39.8173653 C124.401437,39.8173653 123.651329,39.5407844 123.029665,38.9871946 C122.35962,38.3847964 122.024383,37.5764611 122.024383,36.5609042 C122.024383,35.5560509 122.345063,34.7237395 122.985994,34.0631138 C123.602521,33.3836497 124.398868,33.0432754 125.375036,33.0432754 C126.078904,33.0432754 126.630353,33.181994 127.028527,33.4585749 C127.397587,33.7013323 127.582117,33.9881886 127.582117,34.3178593 C127.582117,34.7305898 127.356057,34.9373832 126.904793,34.9373832 C126.438545,34.9373832 126.195359,34.7113234 126.176093,34.2600599 L126.176093,34.230518 C126.137132,33.837482 125.884955,33.6405359 125.418707,33.6405359 C124.894231,33.6405359 124.474222,33.8541796 124.15868,34.2814671 C123.755368,34.7866766 123.554141,35.5466317 123.554141,36.5609042 C123.554141,37.4891198 123.83329,38.1540269 124.39159,38.5573383 C124.750802,38.8339192 125.17338,38.9722096 125.659323,38.9722096 C126.523317,38.9722096 127.222476,38.6883503 127.756799,38.1197754 L128.106165,38.4695689"/>
  <path
    d="M72.718497,45.4050689 L72.718497,46.0245928 C72.1066796,46.0922395 71.800985,46.4904132 71.800985,47.2186856 L71.800985,51.3853802 C71.800985,53.2208323 72.3956766,54.4226317 73.585488,54.9907784 C74.0414611,55.2091317 74.622024,55.3183084 75.3258922,55.3183084 C76.0447455,55.3183084 76.707512,55.1436257 77.3146198,54.7942605 C77.9748174,54.405506 78.4239401,53.8279401 78.661988,53.0607066 C78.793,52.6282814 78.8589341,51.9535269 78.8589341,51.0355868 L78.8589341,47.0949521 C78.8589341,46.4394641 78.5476737,46.0871018 77.9264371,46.0387216 L77.9264371,45.4050689 L80.5338323,45.4050689 L80.5338323,46.0387216 C79.922015,46.0871018 79.6163204,46.4394641 79.6163204,47.0949521 L79.6163204,51.7493024 C79.6163204,54.7698563 78.0985509,56.2799192 75.0638683,56.2799192 C73.3401617,56.2799192 72.1019701,55.8402156 71.3492934,54.9612365 C70.6402874,54.1747365 70.2857844,52.963518 70.2857844,51.3271527 L70.2857844,47.2186856 C70.2857844,46.4904132 69.9800898,46.0973772 69.3682725,46.0387216 L69.3682725,45.4050689 L72.718497,45.4050689"/>
  <path
    d="M82.0558832,55.573482 C82.5756497,55.5006976 82.8355329,55.0875389 82.8355329,54.3348623 L82.8355329,50.8099551 C82.8355329,50.3437066 82.5803593,50.0547096 82.0708683,49.9429641 L82.0708683,49.3748174 L84.1829012,49.3748174 L84.1756228,50.2341018 C84.8067066,49.5691946 85.5448263,49.2365269 86.3895539,49.2365269 L86.4700449,49.2365269 C87.2711018,49.2463743 87.8075659,49.5156766 88.0798653,50.0452904 C88.2202964,50.336 88.2909401,50.8099551 88.2909401,51.465015 L88.2909401,54.3348623 C88.2909401,55.1217904 88.5529641,55.5298114 89.0774401,55.5589251 L89.0774401,56.1412006 L86.1639222,56.1412006 L86.1639222,55.573482 C86.6883982,55.5006976 86.9504222,55.0875389 86.9504222,54.3348623 L86.9504222,51.4072156 C86.9504222,50.4991228 86.6203234,50.0452904 85.9601257,50.0452904 C85.2656766,50.0452904 84.6731257,50.4237695 84.1829012,51.1811557 L84.1829012,54.3348623 C84.1829012,55.0978144 84.4402156,55.5101168 84.9548443,55.573482 L84.9548443,56.1412006 L82.0558832,56.1412006 L82.0558832,55.573482"/>
  <path
    d="M93.087006,49.3679671 L93.087006,54.3425689 C93.087006,55.1243593 93.3494581,55.5298114 93.873506,55.5589251 L93.873506,56.1412006 L90.9895299,56.1412006 L90.9895299,55.5657754 C91.499021,55.507976 91.7541946,55.0999551 91.7541946,54.3425689 L91.7541946,51.1811557 C91.7541946,50.7787006 91.7203713,50.5016916 91.6522964,50.3514132 C91.5503982,50.1471886 91.329476,50.0110389 90.9895299,49.9429641 L90.9895299,49.3679671 L93.087006,49.3679671 Z M91.6013473,46.5923114 C91.7563353,46.3932246 91.9704072,46.2938952 92.2422784,46.2938952 C92.4897455,46.2938952 92.6914012,46.3765269 92.8463892,46.5413623 C93.0262096,46.7160449 93.1161198,46.9228383 93.1161198,47.1604581 C93.1161198,47.4374671 93.0163623,47.6562485 92.8177036,47.8163743 C92.6280359,47.9717904 92.4362275,48.0492844 92.2422784,48.0492844 C92.0187874,48.0492844 91.8124222,47.9598024 91.6227545,47.779982 C91.4433623,47.595024 91.3534521,47.3890868 91.3534521,47.1604581 C91.3534521,46.9519521 91.4360838,46.7627126 91.6013473,46.5923114 L91.6013473,46.5923114 Z"/>
  <path
    d="M102.60935,49.9284072 C102.089584,49.9917725 101.725662,50.2782006 101.516728,50.7876916 L99.3100749,56.112515 L98.9238892,56.112515 L96.6585808,51.0133234 C96.3961287,50.4019341 96.0078024,50.0401527 95.4931737,49.9284072 L95.4931737,49.3820958 L98.4576407,49.3820958 L98.4576407,49.9356856 C98.0791617,49.9553802 97.889494,50.0911018 97.889494,50.3437066 C97.889494,50.4113533 97.9357335,50.5500719 98.0277844,50.759006 L99.4192515,53.8617635 L99.4483653,53.8617635 L100.686557,50.7735629 C100.759341,50.535515 100.795734,50.3775299 100.795734,50.3000359 C100.795734,50.0859641 100.58209,49.9647994 100.154802,49.9356856 L100.154802,49.3820958 L102.60935,49.3820958 L102.60935,49.9284072"/>
  <path
    d="M109.84241,54.721476 C109.026368,55.6873683 108.113566,56.1703144 107.103575,56.1703144 C106.341051,56.1703144 105.671006,55.9690868 105.093012,55.5657754 C104.335626,55.0173234 103.957147,54.1627485 103.957147,53.0020509 C103.957147,51.9291228 104.255563,51.0527126 104.852823,50.3728204 C105.41626,49.7027754 106.149243,49.3679671 107.052626,49.3679671 C107.887506,49.3679671 108.545563,49.671521 109.026368,50.2782006 C109.444237,50.8026766 109.652743,51.4217725 109.652743,52.135488 L109.652743,52.3105988 L105.501033,52.3105988 C105.491186,52.4317635 105.486476,52.6526856 105.486476,52.9729371 C105.486476,54.5998832 106.103003,55.4129281 107.336485,55.4129281 C108.074605,55.4129281 108.78832,55.0657036 109.47806,54.3716826 L109.84241,54.721476 Z M108.203476,51.5891766 C108.203476,50.5838952 107.792886,50.0812545 106.972563,50.0812545 C106.059332,50.0812545 105.578955,50.6202874 105.530147,51.6983533 L108.203476,51.6983533 L108.203476,51.5891766 L108.203476,51.5891766 Z"/>
  <path
    d="M113.722677,49.3679671 L113.722677,50.4456048 L113.729955,50.4456048 C114.259141,49.6394102 114.829856,49.2365269 115.441674,49.2365269 C116.034225,49.2365269 116.330072,49.5011198 116.330072,50.0307335 C116.330072,50.4725778 116.121566,50.6930719 115.703698,50.6930719 C115.446383,50.6930719 115.247296,50.6104401 115.106437,50.4456048 C115.019096,50.2953263 114.909919,50.2199731 114.778907,50.2199731 C114.526302,50.2199731 114.293392,50.4237695 114.079749,50.8317904 C113.841701,51.2787725 113.722677,51.8173772 113.722677,52.4484611 L113.722677,54.3425689 C113.722677,55.1243593 113.979991,55.5298114 114.49462,55.5589251 L114.49462,56.1412006 L111.595659,56.1412006 L111.595659,55.5657754 C112.115425,55.507976 112.375308,55.0999551 112.375308,54.3425689 L112.375308,50.8099551 C112.375308,50.3338593 112.120135,50.0452904 111.610644,49.9429641 L111.610644,49.3679671 L113.722677,49.3679671"/>
  <path
    d="M122.146832,49.7824102 C122.501335,50.026024 122.678587,50.3167335 122.678587,50.6566796 C122.678587,51.0210299 122.494057,51.2034192 122.124997,51.2034192 C121.726823,51.2034192 121.481497,50.9580928 121.389446,50.4674401 C121.389446,50.1322036 121.107728,49.9647994 120.54429,49.9647994 C119.704272,49.9647994 119.284263,50.2850509 119.284263,50.9264102 C119.284263,51.2419521 119.415704,51.491988 119.677728,51.676518 C119.833144,51.7882635 120.180368,51.9098563 120.719401,52.0408683 C121.423269,52.2399551 121.928479,52.4266257 122.234602,52.6013084 C122.826725,52.9511018 123.123,53.4490329 123.123,54.0951018 C123.123,54.6919341 122.870395,55.1825868 122.365614,55.5657754 C121.860404,55.9498204 121.236599,56.1412006 120.493769,56.1412006 C119.711551,56.1412006 119.090314,55.9643772 118.628775,55.6098743 C118.240449,55.3183084 118.046072,54.9856407 118.046072,54.6118713 C118.046072,54.1216467 118.288829,53.8763204 118.774772,53.8763204 C119.245731,53.8763204 119.48121,54.0728383 119.48121,54.4663024 C119.48121,54.5095449 119.466653,54.5848982 119.437539,54.6919341 C119.417844,54.7989701 119.407997,54.8768922 119.407997,54.9252725 C119.407997,55.0802605 119.478641,55.2117006 119.6195,55.3183084 C119.818587,55.469015 120.105015,55.5439401 120.478784,55.5439401 C120.925766,55.5439401 121.277701,55.4279132 121.535015,55.1945749 C121.743949,55.0006257 121.848416,54.7672874 121.848416,54.4954162 C121.848416,54.0582814 121.491344,53.7161946 120.777629,53.4687275 C119.840422,53.1677425 119.264997,52.9416826 119.051353,52.790976 C118.531587,52.4510299 118.272132,51.9749341 118.272132,51.3631168 C118.272132,50.7615749 118.485775,50.273491 118.913063,49.8992934 C119.325793,49.5452186 119.85712,49.3679671 120.507898,49.3679671 C121.197638,49.3679671 121.743949,49.5058293 122.146832,49.7824102"/>
  <path
    d="M127.023389,49.3679671 L127.023389,54.3425689 C127.023389,55.1243593 127.285413,55.5298114 127.809889,55.5589251 L127.809889,56.1412006 L124.925485,56.1412006 L124.925485,55.5657754 C125.435404,55.507976 125.69015,55.0999551 125.69015,54.3425689 L125.69015,51.1811557 C125.69015,50.7787006 125.656326,50.5016916 125.588251,50.3514132 C125.486353,50.1471886 125.265431,50.0110389 124.925485,49.9429641 L124.925485,49.3679671 L127.023389,49.3679671 Z M125.537302,46.5923114 C125.692719,46.3932246 125.906362,46.2938952 126.178234,46.2938952 C126.426129,46.2938952 126.627356,46.3765269 126.782772,46.5413623 C126.962593,46.7160449 127.052503,46.9228383 127.052503,47.1604581 C127.052503,47.4374671 126.952746,47.6562485 126.753659,47.8163743 C126.564419,47.9717904 126.372611,48.0492844 126.178234,48.0492844 C125.955171,48.0492844 125.748805,47.9598024 125.559138,47.779982 C125.379746,47.595024 125.289835,47.3890868 125.289835,47.1604581 C125.289835,46.9519521 125.372467,46.7627126 125.537302,46.5923114 L125.537302,46.5923114 Z"/>
  <path
    d="M130.316243,49.3525539 L130.316243,47.8527665 L131.649482,47.1026587 L131.649482,49.3525539 L133.099177,49.3525539 L133.099177,49.9647994 L131.649482,49.9647994 L131.649482,54.4076467 C131.649482,55.0293114 131.916216,55.3401437 132.450539,55.3401437 C132.775928,55.3401437 133.094039,55.2091317 133.404871,54.9471078 L133.740108,55.361979 C133.210494,55.9592395 132.591398,56.2580838 131.882392,56.2580838 C130.838578,56.2580838 130.316243,55.6561138 130.316243,54.4517455 L130.316243,49.9647994 L129.551578,49.9647994 L129.551578,49.3525539 L130.316243,49.3525539"/>
  <path
    d="M142.749536,49.9429641 C142.332096,50.035015 141.984871,50.3753892 141.707862,50.9623743 L138.976734,56.9499641 C138.617093,57.7411737 138.301551,58.2926228 138.02968,58.6030269 C137.636216,59.0303144 137.165257,59.2443862 136.616805,59.2443862 C135.791344,59.2443862 135.378614,58.9237066 135.378614,58.2827754 C135.378614,57.7728563 135.601677,57.5181108 136.048659,57.5181108 C136.242608,57.5181108 136.434844,57.5836168 136.624084,57.7150569 C136.803476,57.8700449 136.980728,57.9479671 137.155838,57.9479671 C137.539455,57.9479671 137.847719,57.6730988 138.080629,57.1246467 L138.590548,56.0324521 L136.565856,50.9623743 C136.269581,50.3604042 135.854281,50.0234551 135.319958,49.9502425 L135.319958,49.3679671 L138.583269,49.3679671 L138.583269,49.9502425 L138.371766,49.9502425 C138.056225,49.9502425 137.898668,50.0812545 137.898668,50.3437066 C137.898668,50.4597335 137.956895,50.6374132 138.07335,50.8754611 L139.391605,54.1892934 L139.413868,54.1892934 L140.79035,51.1593204 C140.930781,50.7517275 141.001425,50.5111108 141.001425,50.4383263 C140.846009,50.1180749 140.619949,49.9553802 140.324102,49.9502425 L140.324102,49.3679671 L142.749536,49.3679671 L142.749536,49.9429641"/>
</svg>
